<svg width="640" height="199" viewBox="0 0 640 199" fill="none" xmlns="http://www.w3.org/2000/svg">
<g clip-path="url(#clip0_117_2519)">
<path d="M0 0H640V191C640 195.418 636.418 199 632 199H7.99999C3.58171 199 0 195.418 0 191V0Z" fill="#FDFBF7"/>
<path d="M599.283 180.5C591.012 181 570.853 181.5 562.582 182C545.524 182 542.362 181.5 516 181.5C482 183 432.2 181.5 395.5 181.5C306.075 178.5 270.5 181 207.5 172.5C189.5 171 149 162.5 133.031 157.5C109.5 151 88 144.5 66 132C54.5717 126.243 44.2004 120.484 36 115C22.1748 105.754 13.9415 97.9415 13 97C11.5 95.5 7 91.6316 3.5 88C-1.5 83 -7.7514 73.7426 -8.60138 72.5C-31.5172 39 -32.3791 1.5 -50.4709 1.5C-74.2486 3.5 -71.6641 54 -80.9684 82C-90.2728 110 -118.186 170.569 -182.799 183.5C-221.841 191.313 -420.06 176.5 -451.074 176.5C-491.91 174 -558.074 174.625 -599.944 178C-618.552 179.5 -638.712 183.5 -646.465 186.5C-646.465 402.782 542.31 411.163 639.073 201.5C643.198 192.563 640 183.23 640 173.5C630.5 175.5 623.828 177.348 616.5 178.5C610.814 179 605 180.5 599.283 180.5Z" fill="url(#paint0_linear_117_2519)"/>
<path d="M-645.033 185C-645.033 185 -634.486 182.031 -627.406 180.64C-620.327 179.248 -610.502 178.169 -599.497 177.152C-588.491 176.134 -581.618 175.907 -570.118 175.408C-558.619 174.908 -546.849 174.709 -531.926 174.536C-517.003 174.362 -507.75 174.329 -492.266 174.536C-476.781 174.742 -448.72 176.14 -421.758 177.152C-394.795 178.163 -379.671 178.67 -352.718 179.768C-325.765 180.865 -288.304 182.813 -273.397 183.256C-258.489 183.698 -250.13 184.064 -235.205 184.128C-220.279 184.192 -195.762 185.541 -185.277 183.5C-174.792 181.459 -170.641 179.519 -161.334 176C-152.028 172.481 -144.527 168.336 -135.318 162.327C-126.11 156.318 -122.731 151.801 -116.222 144.886C-109.714 137.972 -106.648 133.889 -101.533 126.573C-96.4188 119.257 -89.042 106.523 -83.9062 93.4361C-78.7703 80.3487 -77.0381 68.2646 -75.0927 59.4266C-73.1473 50.5887 -72.2872 44.2551 -70.6859 36.7536C-69.0847 29.2522 -67.964 22.1376 -66.2792 17.5688C-64.5943 13 -62.9379 10.2087 -60.4035 7.10437C-57.8691 4.00002 -54.8336 0.979561 -50.1211 1.0001C-45.6817 1.01946 -43.0533 3.14951 -40.28 6.50002C-38.2107 9.00002 -35.7768 13.2559 -34.096 18C-31.6403 24.9312 -29.8637 29.4066 -26.6183 36.7536C-22.5952 45.8615 -20.8116 50.9441 -15.975 59.5C-11.0038 68.2938 -8.10315 73.1098 -1.48067 81C3.74434 87.2253 8.63652 91.8185 15.0737 97.5C24.4369 105.764 30.5006 110.212 39.483 116.109C48.4653 122.006 54.9656 125.11 64.4546 130.062C73.9437 135.013 79.0686 137.976 89.4262 142.27C99.7838 146.564 109.675 149.561 123.211 153.607C136.748 157.653 152.195 161.923 171.686 165.815C191.176 169.707 208.597 171.679 224.567 173.664C240.537 175.648 249.527 176.727 265.696 178.024C281.866 179.32 303.255 180.08 327.391 180.64C351.527 181.2 374.766 180.464 402.306 180.64C429.845 180.815 451.008 181.583 472.814 181.512C494.62 181.441 512.572 180.746 528.633 180.64C544.694 180.533 555.388 180.999 569.763 180.64C584.137 180.28 594.735 180.276 606.486 178.896C618.236 177.515 635.864 173.664 635.864 173.664" stroke="#677344" stroke-opacity="0.4" stroke-width="2" stroke-linecap="round"/>
<path d="M602.781 160C594.511 161.5 574.351 165.5 566.081 166C552.124 167.5 532.999 170.167 518.525 171.5C485.96 174.5 436.337 179.5 399.636 179.5C313.313 179.5 266.791 181 228.023 176C211.356 173.85 174.368 171.61 160.308 169.5C100.347 160.5 80.7045 155.5 69.8494 153C66.2311 152.167 33.074 147.157 31.5983 145C-12.8558 131.5 -39.2181 123.5 -54.2084 121C-76.9523 124 -86.1785 140.015 -108.484 157C-132.778 175.5 -163.276 166.5 -176.199 166.5C-236.677 161 -383.479 144.5 -414.493 144.5C-454.812 143.5 -549.406 148 -590.242 154C-609.884 157.5 -636.246 163 -644 166C-644 375.49 482.643 389.203 639.999 199.5C652.025 185.002 639.999 170.898 639.999 154C630.079 154.711 623.458 156.5 619.322 157.5C613.636 158.5 607.95 159.5 602.781 160Z" fill="url(#paint1_linear_117_2519)"/>
<path d="M-644 164.895C-644 164.895 -625.493 160.302 -617.559 158.738C-609.626 157.174 -604.36 156.092 -596.329 154.718C-588.298 153.344 -584.561 152.846 -576.43 151.701C-568.299 150.557 -561.262 149.899 -551.458 149.063C-541.654 148.226 -534.451 147.974 -523.549 147.303C-512.646 146.633 -503.338 145.978 -494.17 145.544C-485.003 145.11 -479.858 144.863 -470.668 144.665C-461.477 144.466 -449.824 144.665 -438.351 144.665C-426.878 144.665 -414.153 144.428 -408.973 144.665C-403.793 144.901 -394.228 145.457 -389.064 145.795C-383.9 146.133 -378.716 146.477 -367.843 147.303C-356.971 148.13 -347.63 149.195 -338.465 149.942C-329.3 150.689 -324.121 150.925 -314.962 151.701C-305.804 152.478 -290.084 153.989 -279.708 155.22C-269.332 156.451 -262.981 157.584 -253.268 158.738C-243.554 159.893 -235.08 161.129 -225.358 162.257C-215.636 163.384 -205.927 164.538 -194.511 165.775C-183.095 167.012 -170.288 168.034 -165.132 168.414C-159.977 168.794 -157.106 169.231 -151.912 169.293C-146.719 169.355 -140.513 169.117 -135.754 168.414C-130.996 167.711 -127.858 167.141 -124.003 165.775C-120.147 164.409 -118.457 163.212 -115.189 161.377C-111.922 159.541 -107.776 156.679 -103.438 153.461C-99.0994 150.242 -91.9108 143.492 -87.2798 139.387C-82.6487 135.282 -78.129 131.074 -74.0595 128.653C-69.99 126.232 -65.4504 124.117 -63.7771 123.554C-62.1037 122.991 -59.9066 122 -55.8858 122C-51.865 122 -50.2334 122.358 -47.6189 122.675C-45.0044 122.991 -39.3046 124.726 -38.2683 124.974C-37.2319 125.222 -31.0207 126.796 -24.1162 128.832C-17.2117 130.868 -2.89558 135.897 5.26212 138.508C13.4198 141.118 21.9117 143.127 30.2338 145.544C38.5559 147.962 46.3139 149.351 56.6743 151.701C67.0347 154.052 73.5906 155.612 84.5838 157.859C95.5769 160.105 114.401 163.498 128.651 165.775C142.901 168.052 156.231 169.915 165.374 171.052C174.517 172.19 180.304 172.873 188.877 173.691C197.45 174.509 204.068 174.911 210.968 175.538C217.868 176.165 224.548 176.706 231.476 177.21C238.404 177.713 246.311 178.538 256.048 179.009C265.785 179.479 270.534 179.507 281.419 179.848C292.303 180.19 301.628 179.848 312.528 179.848C323.427 179.848 360.257 180.059 376.899 179.848C393.541 179.638 402.884 179.591 419.497 178.969C436.111 178.347 448.194 177.63 466.503 176.33C484.812 175.03 507.982 172.898 525.259 171.052C542.537 169.207 552.23 168.149 569.327 165.775C586.424 163.401 636.897 154.34 636.897 154.34" stroke="#4E6D80" stroke-opacity="0.6" stroke-width="2" stroke-linecap="round"/>
<path d="M-646.234 180.622C-584.205 184.122 -506.133 182.927 -427.582 180.122C-405.355 180.122 -365.554 180.122 -345.911 180.122C-275.612 180.122 -247.699 180.122 -206.346 180.122C-133.462 178.122 -72.4668 171.712 -45.0707 162.212C20.826 149.065 76.5491 125.712 119 106C148.5 93 176.5 78.5 189.5 73.4997C217 61 225.5 57 264.5 42C303.5 27 343.575 19.6882 392.5 28.4999C401.5 30.1208 423.355 36 440.5 44C454.5 49.5 474.35 62.2714 489 75C517.5 96.5 539.248 120.546 554 132.5C568 145 580.729 152.5 589 157.5C607.609 167 627.5 170.5 639 169.5C639 407.5 -646.234 406.123 -646.234 180.622Z" fill="url(#paint2_linear_117_2519)"/>
<path d="M-642.078 178.85C-622.023 178.85 -610.78 178.85 -590.725 178.85C-563.221 178.85 -547.801 178.85 -520.297 178.85C-476.75 178.85 -452.335 178.85 -408.788 178.85C-353.207 178.85 -322.045 179.18 -266.466 178.85C-229.793 178.633 -209.186 179.768 -172.562 177.925C-161.094 177.348 -154.667 176.945 -143.218 176.076C-127.722 174.9 -119.01 174.353 -103.602 172.377C-84.5629 169.934 -73.9615 167.944 -55.1835 164.054C-38.4453 160.586 -29.0993 158.4 -12.6337 153.881C5.92015 148.789 16.1189 145.251 34.3179 139.084C50.4761 133.609 59.5895 130.633 75.4005 124.288C91.1227 117.978 99.5981 113.688 115.016 106.717C129.964 99.9575 138.259 95.9932 153.164 89.1458C165.765 83.357 172.829 80.1096 185.443 74.3492C195.751 69.6422 201.459 66.8534 211.854 62.3269C224.91 56.6415 232.35 53.7079 245.6 48.4551C255.872 44.3831 261.542 41.8607 272.01 38.2825C282.752 34.6109 288.81 32.5441 299.888 29.9594C310.076 27.5822 315.884 26.4933 326.298 25.3355C340.533 23.7528 348.665 23.7615 362.979 24.4107C373.912 24.9065 380.103 25.2205 390.856 27.185C399.585 28.7797 404.377 30.2063 412.865 32.7338C420.41 34.9805 424.628 36.3293 431.939 39.2073C440.764 42.6813 453.947 49.3799 453.947 49.3799C453.947 49.3799 463.947 55.3503 470.087 59.5526C476.582 63.9978 480.011 66.7727 486.227 71.5748C494.404 77.8931 498.914 81.5326 506.768 88.221C517.4 97.2756 533.178 112.265 533.178 112.265L556.654 133.536C556.654 133.536 571.927 146.542 583.064 152.956C590.222 157.078 594.354 159.322 602.138 162.204C608.795 164.668 613.778 165.991 619.678 167.099C625.578 168.207 627.208 168.462 632.094 168.677C634.718 168.793 638.819 168.677 638.819 168.677" stroke="#A14139" stroke-opacity="0.4" stroke-width="2" stroke-miterlimit="1.41421" stroke-linecap="round"/>
<path d="M574 172C560.856 171 523.5 162 510.5 158.5C495.158 154.815 471.563 147.385 446.5 139.5C420 132 380 117.915 344.5 112C294 103 241.5 115 181 135C173.324 137.64 137.201 147.791 130.5 150C42.5 172.5 28.5216 180.779 -34.5 86.5C-35.8826 84.4318 -34.5836 74.1573 -36.0269 71.9999C-56.7536 37.4999 -67.3697 11 -83.5466 10C-99.7236 10 -135.111 50 -165.442 68C-271.603 143 -297.891 139 -356.532 151C-394.715 158.813 -451.572 168.631 -479.376 171.5C-527.722 176.49 -563.482 176.293 -601.193 176.085C-608.829 176.043 -616.546 176 -624.463 176C-624.463 401.501 640 414.5 640 176.5C630.299 177.211 604.308 175.309 590.669 173.965C585.117 173.418 579.011 172.381 574 172Z" fill="url(#paint3_linear_117_2519)"/>
<path d="M-645.195 175.853C-645.195 175.853 -618.382 175.853 -604.028 175.853C-589.673 175.853 -581.616 176.183 -567.271 175.853C-552.925 175.523 -543.03 175.026 -527.573 173.949C-512.117 172.871 -499.642 171.509 -486.406 170.139C-473.17 168.768 -465.29 167.982 -452.59 166.329C-439.889 164.676 -432.771 163.704 -420.244 161.567C-407.717 159.43 -396.989 156.829 -382.016 153.948C-367.044 151.067 -354.924 149.552 -340.849 146.329C-326.774 143.105 -318.531 140.842 -305.562 136.804C-292.594 132.767 -285.381 130.353 -273.216 125.376C-261.051 120.398 -250.728 115.19 -239.4 109.185C-228.072 103.179 -222.12 99.4956 -211.465 92.9935C-200.809 86.4915 -189.022 79.0967 -180.589 72.9929C-172.157 66.8891 -164.921 61.9771 -156.785 55.707C-148.648 49.4369 -141.263 44.2742 -132.985 37.8122C-124.707 31.3501 -119.016 26.8763 -113.324 22.4026C-107.633 17.929 -98.0998 10.0927 -90.9024 11.0861C-83.7051 12.0795 -78.3801 18.0185 -75.038 22.4027C-71.6958 26.7869 -69.1655 31.4179 -64.5927 38.4061C-58.7279 47.3689 -55.5101 52.5131 -50.1293 61.7524C-43.8572 72.5221 -40.4855 78.6552 -33.5997 89.0725C-26.215 100.244 -21.9558 106.477 -13.4542 116.889C-3.92574 128.559 6.74613 139.269 12.8898 145.203C19.0335 151.136 24.0202 154.459 31.1303 157.758C38.2403 161.056 43.1046 162.713 51.7141 163.472C60.3236 164.231 69.6409 163.126 78.1742 162.065C86.7075 161.005 95.7795 158.274 109.055 154.9C122.33 151.527 136.099 147.16 148.752 143.471C161.406 139.783 168.481 137.688 181.098 133.947C193.715 130.206 207.475 125.495 219.325 122.518C231.175 119.541 241.356 116.323 253.501 113.895C265.646 111.468 272.211 110.593 286.958 109.185C301.705 107.776 316.319 107.776 331.066 109.185C345.813 110.593 354.26 112.716 367.823 115.851C381.385 118.986 388.454 121.624 401.639 125.376C414.824 129.127 428.577 132.883 441.336 136.804C454.096 140.726 460.778 143.564 473.683 147.281C486.587 150.998 495.605 153.722 508.778 157.124C521.951 160.526 534.764 163.668 547.196 166.329C559.628 168.991 566.739 170.269 579.542 172.044C592.346 173.818 614.399 175.691 620.71 175.853C627.021 176.016 636.883 175.853 636.883 175.853" stroke="#EFA910" stroke-opacity="0.4" stroke-width="2" stroke-linecap="round"/>
</g>
<defs>
<linearGradient id="paint0_linear_117_2519" x1="-626.424" y1="18.4999" x2="-629.81" y2="221.004" gradientUnits="userSpaceOnUse">
<stop offset="0.05" stop-color="#677344" stop-opacity="0.6"/>
<stop offset="1" stop-color="white" stop-opacity="0"/>
</linearGradient>
<linearGradient id="paint1_linear_117_2519" x1="-622.29" y1="1.99986" x2="-625.675" y2="204.504" gradientUnits="userSpaceOnUse">
<stop offset="0.05" stop-color="#4E6D80" stop-opacity="0.6"/>
<stop offset="1" stop-color="white" stop-opacity="0"/>
</linearGradient>
<linearGradient id="paint2_linear_117_2519" x1="-646.234" y1="25.5205" x2="-646.234" y2="180.02" gradientUnits="userSpaceOnUse">
<stop offset="0.05" stop-color="#A14139" stop-opacity="0.5"/>
<stop offset="1" stop-color="white" stop-opacity="0"/>
</linearGradient>
<linearGradient id="paint3_linear_117_2519" x1="-650.75" y1="9.99988" x2="-654.212" y2="212.501" gradientUnits="userSpaceOnUse">
<stop offset="0.05" stop-color="#EFA910" stop-opacity="0.6"/>
<stop offset="1" stop-color="white" stop-opacity="0"/>
</linearGradient>
<clipPath id="clip0_117_2519">
<path d="M0 0H640V191C640 195.418 636.418 199 632 199H7.99999C3.58171 199 0 195.418 0 191V0Z" fill="white"/>
</clipPath>
</defs>
</svg>
